<svg width="73" height="17" viewBox="0 0 73 17" fill="none" xmlns="http://www.w3.org/2000/svg">
<path d="M59.6807 0.391272H53.9873L43.1816 14.7096L31.5234 0.391272H28.2779L30.8189 3.51228C31.8249 4.74973 32.4993 6.8304 32.502 8.22937C32.5075 10.77 30.712 12.1197 29.4758 12.7494C27.6556 13.6747 25.3722 13.3106 23.426 11.9554C21.5373 10.6386 20.3723 8.94392 18.8126 7.1425C17.39 5.5026 16.129 3.80247 14.2102 2.20638C11.406 -0.128895 7.85892 -0.643587 4.72577 0.821095C1.81191 2.18722 0 5.37666 0 8.4347C0 12.8178 2.61233 15.1531 5.25756 16.1715C6.38418 16.6041 7.59577 16.7765 8.80463 16.7765H10.7399L10.7481 13.2668C6.66652 13.4995 3.83763 12.5906 3.83763 8.43196C3.83763 6.8742 4.80252 5.01529 6.35402 4.28979C7.19556 3.89556 9.4022 3.19196 11.7541 5.1467C13.4317 6.5402 14.7968 8.11713 16.1181 9.6393C17.7655 11.5393 19.3855 13.8499 21.2303 15.0928C24.4046 17.231 28.097 17.6225 31.2 16.0072C33.6286 14.7424 35.2295 12.5139 35.6735 9.87748C35.6955 9.74333 35.8599 9.69679 35.9449 9.80356L41.6219 16.7765H44.8674L55.6813 2.48563C55.8047 2.32137 56.0514 2.31589 56.1829 2.47468L67.9014 16.7765H73L59.6807 0.391272Z" fill="#D42128"/>
</svg>
