<?xml version="1.0" encoding="UTF-8"?>
<svg width="192px" height="45px" viewBox="0 0 192 45" version="1.1" xmlns="http://www.w3.org/2000/svg" xmlns:xlink="http://www.w3.org/1999/xlink">
    <title>bluestate</title>
    <g id="safia" stroke="none" stroke-width="1" fill="none" fill-rule="evenodd">
        <g id="Tablet" transform="translate(-502.000000, -3983.000000)" fill="#2E2E41" fill-rule="nonzero">
            <g id="Cards-Copy" transform="translate(19.000000, 3743.000000)">
                <g id="bluestate" transform="translate(417.000000, 179.000000)">
                    <g transform="translate(66.000000, 61.000000)">
                        <path d="M103.054629,22.5185045 C104.325226,21.1649273 105.475632,19.9355315 106.626038,18.7061356 C107.776444,17.4767398 107.793614,17.4221 106.662831,16.2100896 C101.887052,11.101267 97.1284439,5.98002632 92.3060601,0.915909051 C91.7668047,0.395199534 91.060955,0.087642919 90.3167655,0.0491229166 C84.5549245,-0.0179350365 78.7881777,0.0118684983 73.0336954,0.0118684983 C72.748665,-0.0125795053 72.4617016,0.000779543796 72.1800893,0.0516065445 C71.5300732,0.230427753 71.3019543,0.650160867 71.6895111,1.25616607 C71.9111996,1.5563188 72.1573508,1.83712429 72.4253784,2.0956323 C74.8635521,4.70592522 77.3041786,7.31125087 79.9827356,10.1773575 C77.3802182,10.1773575 75.1407287,10.1525212 72.9036921,10.1972265 C72.4646246,10.1972265 72.0304629,10.4679419 71.5938483,10.614476 C71.7876267,11.0739471 71.8734779,11.635247 72.1874479,11.9779877 C74.8856281,14.9186031 77.6230545,17.8194805 80.3482164,20.7352596 C80.8952111,21.3213958 81.4397529,21.9124993 81.999012,22.5160208 C81.6408899,22.908434 81.3661662,23.2139203 81.0865366,23.509472 C78.1087269,26.6934829 75.1211056,29.870043 72.1653719,33.0764066 C71.8661192,33.4017619 71.7557391,33.9109056 71.557055,34.3331223 C72.0157456,34.5044927 72.4695304,34.8000444 72.9355797,34.8298479 C74.1620252,34.8993895 75.3884707,34.8522006 76.6149162,34.8522006 L79.9950001,34.8522006 C77.2305919,37.7952996 74.7212844,40.4602324 72.2414116,43.152485 C71.9127242,43.5101274 71.7753623,44.0441074 71.5472434,44.4961277 C72.0132927,44.6625308 72.479342,44.9705006 72.9453913,44.9729842 C78.7881777,45.0052714 84.633417,45.0176895 90.4762034,44.9580825 C91.1444968,44.9231654 91.7774375,44.6433357 92.2570023,44.1707724 C97.1284439,39.0420808 101.933657,33.8463313 106.79774,28.7126724 C107.621912,27.8434027 107.570401,27.2572665 106.758494,26.4575383 C105.492802,25.2008226 104.308056,23.8571799 103.054629,22.5185045 Z M76.3524569,2.88045871 C76.2258565,2.70397252 76.1126971,2.51799187 76.0139579,2.32412607 L81.2557861,2.32412607 C84.0349116,2.32412607 86.8140371,2.29928979 89.5956155,2.34896235 C90.104043,2.35245388 90.5942445,2.54111758 90.9765932,2.88045871 C95.4457606,7.59935171 99.8732289,12.3505319 104.310509,17.0992284 C104.407158,17.2243741 104.494867,17.3563413 104.572968,17.4941252 L101.465155,20.8122521 C98.3916827,17.528896 95.4212317,14.4020085 92.5145558,11.2155139 C91.8154819,10.4480729 91.1090493,10.1127831 90.0616648,10.1525212 C88.0233124,10.2319973 85.9776013,10.1997101 83.9294373,10.1525212 C83.4996807,10.1503434 83.0844702,9.99466726 82.7569554,9.71291905 C80.603317,7.46275218 78.4815663,5.16788 76.3524569,2.88045871 Z M88.8622011,26.4202839 C87.6627374,25.131281 86.4583679,23.8472454 85.2196579,22.5209881 C86.5172373,21.1301565 87.7142481,19.7691284 89.0020159,18.5024782 C89.8188286,17.7002663 89.7501477,17.1091629 88.9725812,16.3417219 C87.7927406,15.1942858 86.7134686,13.9524719 85.330038,12.4945823 C87.1500832,12.4945823 88.6095533,12.4771969 90.0690235,12.5094841 C90.3456553,12.5280385 90.6066344,12.6460699 90.8048908,12.8422902 C93.817041,16.0412029 96.8120209,19.2550174 99.8609645,22.528439 C96.7973036,25.8043442 93.7998707,29.0206423 90.7852677,32.2145878 C90.6163501,32.3859908 90.3931091,32.491534 90.1548747,32.5126231 C88.6610641,32.5374594 87.1697063,32.5250412 85.354567,32.5250412 L88.8180491,28.8219521 C89.9414732,27.6124253 89.9439261,27.5900726 88.8523896,26.4202839 L88.8622011,26.4202839 Z M75.8422556,12.5119677 C78.0498575,12.5119677 79.9851885,12.4995495 81.910708,12.5268694 C82.1457363,12.5721567 82.3575762,12.6996226 82.5092134,12.8869955 C83.9147199,14.3771722 85.3030562,15.867349 86.772338,17.4469363 L83.6252788,20.8296375 L75.8422556,12.5119677 Z M75.8569729,32.5424266 L83.6179201,24.2346913 L86.772338,27.6124253 C85.2711687,29.2019471 83.7945283,30.7815345 82.2982647,32.3313183 C82.1406281,32.4567819 81.9443075,32.5218694 81.7439114,32.5151067 C79.88462,32.5374594 78.0228757,32.5324921 75.8471614,32.5324921 L75.8569729,32.5424266 Z M103.866535,28.4345061 C99.6794505,32.9050363 95.4776482,37.3755665 91.317545,41.8833511 C90.8158523,42.4725528 90.0704844,42.7896956 89.3037215,42.7402028 C84.9326697,42.7004647 80.5640708,42.7228174 75.8447085,42.7228174 C78.3294871,40.0603683 80.5836939,37.618962 82.8795999,35.2197775 C83.124889,34.9714147 83.6154672,34.8869714 83.9784951,34.8795205 C86.0634525,34.8497169 88.1484098,34.8174298 90.2309143,34.8795205 C91.182636,34.9118076 91.8252935,34.5765179 92.4556865,33.8860693 C95.0949972,31.0025773 97.7882715,28.1737252 100.449658,25.305135 C100.753817,24.9772961 100.9942,24.5898501 101.349869,24.1129936 L104.602403,27.56772 C104.322773,27.8806571 104.09956,28.1637907 103.856724,28.4245716 L103.866535,28.4345061 Z" id="Shape"></path>
                        <path d="M9.85933394,21.5907425 C9.94300615,21.4586971 9.9956001,21.35066 10.0673191,21.2618295 C12.082624,18.5705053 10.9948853,15.4998508 7.71493482,15.1349255 C5.36972241,14.8660332 2.96713477,15.0821074 0.5,15.0821074 L0.5,28.9948851 C2.41250757,28.9948851 4.22938977,28.9948851 6.0486626,28.9948851 C6.52811132,29.0119635 7.00812317,28.9862538 7.48304328,28.9180587 C9.18756565,28.6083524 10.7582125,28.0561627 11.2865427,26.1451065 C11.7742321,24.3444881 11.4777935,22.7503407 9.85933394,21.5907425 Z M3.18468251,17.7494234 C4.44932814,17.7494234 5.67094235,17.6966052 6.88538466,17.7686299 C7.61691881,17.809444 8.1572022,18.2199849 8.17393664,19.067476 C8.19306172,19.9749876 7.61213754,20.4191401 6.84713451,20.4767599 C5.66616108,20.5679913 4.47562512,20.5007682 3.18468251,20.5007682 L3.18468251,17.7494234 Z M7.42088678,26.123499 C6.05344387,26.2627469 4.67404778,26.2891559 3.17511997,26.3635815 L3.17511997,23.3001295 C4.60950065,23.3001295 6.04388133,23.2377081 7.43283995,23.3265386 C8.1643741,23.374555 8.62815719,23.8835298 8.60425084,24.7214176 C8.5803445,25.5593053 8.17393664,26.0442718 7.42088678,26.1186974 L7.42088678,26.123499 Z" id="Shape"></path>
                        <path d="M191.5,27.2810033 L191.5,29.8619074 C191.173117,29.9215649 190.842651,29.9613256 190.510569,29.9809527 C187.5868,29.9809527 184.660558,29.9642864 181.736789,30 C180.853722,30 180.5,29.7857183 180.5,28.8666879 C180.547823,24.9413647 180.547823,21.0152478 180.5,17.0883372 C180.5,16.2383532 180.811671,15.9907388 181.650214,16.0002624 C184.371149,16.0312142 187.092085,16.0002624 189.81302,16.0121669 C191.448055,16.0121669 191.450528,16.0121669 191.43074,17.5645188 C191.43074,17.8787986 191.393636,18.1906975 191.36148,18.7335445 L183.567236,18.7335445 L183.567236,21.6192047 L188.739487,21.6192047 C191.213065,21.6192047 191.213065,21.6192047 190.770295,24.1691569 L183.596919,24.1691569 L183.596919,27.2810033 L191.5,27.2810033 Z" id="Path"></path>
                        <path d="M64.5,26.3263889 L64.5,29 L53.5,29 L53.5,15 L64.3027586,15 L64.3027586,17.6152778 L56.4257471,17.6152778 L56.4257471,20.5489583 L62.1027586,20.5489583 C63.936092,20.5489583 63.9386207,20.5489583 63.8728736,22.3645833 C63.8728736,22.6076389 63.8197701,22.8336806 63.7742529,23.2128472 L56.4232184,23.2128472 L56.4232184,26.3361111 L64.5,26.3263889 Z" id="Path"></path>
                        <path d="M126.804109,28.7944722 C123.984663,30.9509099 118.655464,30.1111911 116.5,27.0976439 L117.917156,25.3710032 C119.292193,25.9871282 120.503712,26.7001439 121.809378,27.0529252 C122.669086,27.2839721 123.71461,27.1597533 124.586706,26.8988939 C125.696646,26.568472 125.813091,25.3238 124.819595,24.7051906 C124.13827,24.2778781 123.31077,24.0766437 122.537777,23.8058468 C121.33369,23.383503 120.060232,23.1251279 118.930471,22.5512373 C116.452927,21.2842059 116.175442,18.2880494 118.268967,16.4595492 C120.843136,14.2087052 125.93449,14.6086896 128.243562,17.3315649 L126.992402,19.0184557 C125.34979,18.58369 123.927679,18.06694 122.460973,17.8731587 C121.502163,17.7464556 120.132081,17.7936587 119.983428,19.1153463 C119.834775,20.4370339 121.199902,20.4469714 122.096774,20.7475808 C123.385097,21.1773778 124.727926,21.470534 125.976609,21.9897685 C128.964528,23.224503 129.373322,26.8293314 126.804109,28.7944722 Z" id="Path"></path>
                        <path d="M46.3363925,24.5036108 C46.0435311,27.3981116 43.6358261,29.0238562 40.5919876,28.9997354 C37.4713331,28.9732024 34.9388019,27.149667 34.648341,24.1755674 C34.3578801,21.2014679 34.5835274,18.1091762 34.5835274,15.0096483 L37.2240812,15.0096483 C37.2600888,15.4800047 37.3177009,15.9407127 37.3249024,16.4038329 C37.3537084,18.6518951 37.3104994,20.8999574 37.4065195,23.1431955 C37.4785346,24.7834126 38.5443582,25.9942787 39.9270482,26.2668442 C41.9794787,26.6720743 43.4989974,25.5745761 43.6238235,23.4109368 C43.7534507,21.1701108 43.6958386,18.9196365 43.7150427,16.6715742 C43.7150427,16.1578003 43.7150427,15.6440264 43.7150427,15 L46.4132086,15 C46.4084076,18.2080717 46.6556595,21.3847863 46.3363925,24.5036108 Z" id="Path"></path>
                        <path d="M160.384774,28.3340475 C158.548354,24.1067729 156.690329,19.8914533 154.882716,15.6617877 C154.553841,14.8894972 153.970508,15.0831676 153.401578,15.0138288 C152.664609,14.9229711 152.347737,15.2864019 152.078875,15.9104509 C150.369684,19.8890623 148.626886,23.8533277 146.903292,27.8223751 C146.766461,28.1379861 146.663237,28.4703341 146.5,28.9628785 C147.2577,28.9946228 148.016564,28.9858432 148.77332,28.9365776 C149.056584,28.9054947 149.493484,28.6233576 149.543896,28.3962133 C149.992798,26.0243488 151.625171,25.7517757 153.605624,26.0195668 C153.883215,26.0626253 154.165825,26.0626253 154.443416,26.0195668 C155.94856,25.7398207 156.822359,26.3351778 157.22085,27.8128111 C157.336077,28.2407988 157.732167,28.8218099 158.099451,28.9078857 C158.841221,29.0800371 159.647805,28.9580965 160.5,28.9580965 C160.478192,28.7473765 160.439663,28.5387078 160.384774,28.3340475 Z M151.742798,23.3536103 L153.5,19.2530583 C154.15535,20.7737295 154.678669,21.9931356 155.264403,23.3536103 L151.742798,23.3536103 Z" id="Shape"></path>
                        <path d="M139.95253,22.854491 C139.95253,24.4966623 139.896896,26.1412415 139.9743,27.7785971 C140.017839,28.7537868 139.676779,29.0836658 138.73584,28.982535 C138.184186,28.9478715 137.631019,28.9438522 137.078916,28.9704956 L137.078916,17.6245847 L132.5,17.6245847 L132.5,15 L144.5,15 L144.5,17.5740193 L139.95253,17.5740193 L139.95253,22.854491 Z" id="Path"></path>
                        <polygon id="Path" points="175.5 15 175.5 17.6006944 170.982125 17.6006944 170.982125 29 168.063926 29 168.063926 17.6201389 163.5 17.6201389 163.5 15"></polygon>
                        <polygon id="Path" points="27.5 26.3794061 27.5 29 17.5 29 17.5 15 20.1077534 15 20.1077534 26.3794061"></polygon>
                    </g>
                </g>
            </g>
        </g>
    </g>
</svg>