<svg id="Layer_1" data-name="Layer 1" xmlns="http://www.w3.org/2000/svg" viewBox="0 0 354.24 354.37"><defs><style>.cls-1{fill:#2e2e41;}</style></defs><path class="cls-1" d="M201.68,21.32c-99-.37-178,80.44-177.8,177.05C23.55,295,102.14,375.06,199.82,375.68c97.27.62,178.26-77.8,178.3-177.06S297.71,21.65,201.68,21.32Zm-1.53,345.93c-93.59-.46-167.88-76.77-167.88-168.71,0-92.1,74.75-169.12,169.41-168.79a168.75,168.75,0,1,1-1.53,337.5Z" transform="translate(-23.88 -21.32)"/><path class="cls-1" d="M201,34.84c-89.42-.46-162.13,72.63-163.75,160.43C35.58,287.3,110,360.8,198,362.29,289,363.82,363.2,290.56,364.73,201.6,366.34,108,289.86,34.17,201,34.84Zm-1.7,323.48c-87.92-.91-158.45-73.3-158-160C40.91,111.64,112.22,38,202.3,38.68c86.36.66,158.79,71,158.46,160.52C360.43,288,287.63,359.19,199.28,358.32Z" transform="translate(-23.88 -21.32)"/><path class="cls-1" d="M201.43,116.15c-45.55-.21-83,37.25-82.67,82.18-.46,45,36.71,82.1,81.43,82.48s82.72-35.89,83.1-81.61C283.66,152.57,245.5,116.36,201.43,116.15Zm60.32,101.7c-2.73,1.4-5.5,2.81-8.27,4.17-7.07,3.51-12.48,9-17.86,14.72a195.58,195.58,0,0,1-16,15.5,38.38,38.38,0,0,1-20,8.85c-8.52,1.11-16-1.53-23.2-5.67-9.5-5.45-13.68-14.26-15.66-24.43-1.12-5.91-1.74-11.9-2.77-17.82a29,29,0,0,0-6.62-13.89c-4.17-5-8.14-10.25-11.86-15.62a17.5,17.5,0,0,1-2.32-6.95c-.41-2.44,1-4.34,3.27-5.37s4.17,0,5.62,1.65c5.38,6.08,10.67,12.28,16,18.44a43.52,43.52,0,0,0,4,4.22c1.49,1.32,3.18,3.18,5.33,1.77s.91-3.59.21-5.33c-3.47-8.89-7.15-17.69-10.71-26.54-1.11-2.81-2.23-5.62-3.14-8.47-1.28-4-.16-7.61,2.77-9.72,3.39-2.44,6.41-1.82,8.52,1.82a47.69,47.69,0,0,1,2.35,4.88c4.22,9.8,8.4,19.64,12.61,29.43a20.14,20.14,0,0,0,2.07,3.76c.41.58,1.28.79,2,1.16a6.28,6.28,0,0,0,1-2c.12-1.82,0-3.64,0-5.42h-.13c-.29-12.19-.53-24.43-.78-36.63a13.36,13.36,0,0,1,.25-3.14c.82-3.93,3.35-5.83,7.23-5.66,3.47.16,5.54,2.07,5.95,6.12.46,4.34.58,8.72.83,13.06.46,8.47.79,17,1.45,25.47.12,1.69,1.32,3.3,2.06,5,1.24-1.16,3-2.11,3.64-3.56,3-6.65,5.67-13.43,8.44-20.17,1.36-3.43,2.72-6.86,4.09-10.25.16-.38.33-.71.49-1a6.53,6.53,0,0,1,7.73-3.55,6.25,6.25,0,0,1,3.93,7.48c-1.49,6.12-3.26,12.19-4.88,18.27-2.27,8.56-4.67,17.12-6.78,25.71-1.07,4.51-1.24,9.1,1.08,13.44,2.73,5.17,6.57,6.24,11.24,2.69,3.48-2.65,6.91-5.13,11.21-6.08a26.74,26.74,0,0,1,13.18.21,10.24,10.24,0,0,1,2.28.91c1.78.91,3.14,2.23,3.18,4.34S263.49,216.94,261.75,217.85Z" transform="translate(-23.88 -21.32)"/><path class="cls-1" d="M150.09,286.92c-6.32,13.07-12.69,26.17-19.18,39.48-1.78-1.44-3.31-2.64-5-4q5.58-11.22,11.16-22.28l-26.29,12.28c2.27-9.72,4.46-18.94,6.74-28.61-6.74,5.42-13.15,10.58-19.72,15.83-1.62-1.32-3.19-2.56-5-4,11.65-9.17,23.19-18.23,35.18-27.69-2.9,11.53-5.67,22.53-8.44,33.65,10.13-5,20.13-10,30.1-15Z" transform="translate(-23.88 -21.32)"/><path class="cls-1" d="M227.85,310c-2.77-5.66-7.4-9.22-13.6-9.47-6.86-.24-13.81.42-21,.71,1.28,14.34,2.48,28,3.72,42,6.74-.83,13.15-1.24,19.39-2.4,6.78-1.28,11.24-5.62,13.19-12.24A25.14,25.14,0,0,0,227.85,310Zm-5,16.37c-1.28,4.88-4.38,8-9.47,8.81-3.27.49-6.57.78-10.09,1.19-.86-9.88-1.73-19.43-2.6-29.39,3.72-.2,7.07-.49,10.46-.54,5,0,8.6,2.57,10.58,7.12A19.27,19.27,0,0,1,222.81,326.32Z" transform="translate(-23.88 -21.32)"/><path class="cls-1" d="M152.94,111.19c-6.82,6.16-14.59,9.38-23.85,6.08-9.59-3.52-15.79-14.18-14.39-24.39C116,83.37,125,75,135,74.27c2.4-.16,4.84.46,7.73.75-.91,2.35-1.61,4.21-2.35,6.2-5.13-1.57-9.47-.29-13.44,2.85a14.28,14.28,0,0,0-4.59,16.45c2.81,7.82,9.68,12.45,17,11.08,5.83-1.11,10.5-4.13,12.49-10.17.87-2.68.08-5.16-1.61-7.56-2.81,1.73-5.54,3.43-8.44,5.25-1-1.65-2-3.18-3.06-5,4.63-2.9,9.18-5.79,13.73-8.64C160.05,93.66,160.67,104.24,152.94,111.19Z" transform="translate(-23.88 -21.32)"/><path class="cls-1" d="M92.88,144.55c-2.52,6.28-5,12.44-7.61,18.85,6.24,2.52,12.32,5,18.69,7.61-.91,2.19-1.7,4.21-2.57,6.36L62.74,161.75c.87-2.19,1.65-4.18,2.56-6.37,4.72,1.9,9.31,3.72,14.22,5.71,2.53-6.25,5-12.41,7.61-18.81-4.75-1.95-9.34-3.85-14.18-5.79.87-2.15,1.66-4.13,2.56-6.37,12.9,5.21,25.68,10.38,38.66,15.59-.87,2.15-1.66,4.17-2.57,6.41C105.36,149.59,99.24,147.11,92.88,144.55Z" transform="translate(-23.88 -21.32)"/><path class="cls-1" d="M205.4,97.26l-6.82.87c-.82-6.74-1.65-13.27-2.48-20-6.74.82-13.27,1.65-20.13,2.48.79,6.65,1.57,13.18,2.36,20-2.2.28-4.3.53-6.74.86-1.74-13.8-3.39-27.45-5.09-41.38,2.4-.29,4.47-.53,6.78-.82.62,5.12,1.28,10.08,1.9,15.21,6.83-.87,13.36-1.65,20.18-2.48-.62-5-1.2-9.88-1.82-15.13,2.15-.33,4.3-.62,6.78-.95C202,69.73,203.67,83.37,205.4,97.26Z" transform="translate(-23.88 -21.32)"/><path class="cls-1" d="M168.24,300.94c-1,3.26-2,6.36-3,9.8,5.25,1.61,10.34,3.22,15.71,4.87-.62,1.95-1.16,3.72-1.78,5.75-5.21-1.61-10.29-3.14-15.71-4.75-1.28,4.17-2.52,8.26-3.88,12.65,5.21,1.61,10.29,3.18,15.67,4.87-.54,1.91-1.08,3.72-1.74,5.92-7.52-2.32-14.84-4.55-22.32-6.87,4.09-13.35,8.1-26.45,12.19-39.89l22.28,6.82c-.58,1.9-1.11,3.68-1.69,5.58C178.7,304.12,173.61,302.55,168.24,300.94Z" transform="translate(-23.88 -21.32)"/><path class="cls-1" d="M339.22,165.55l-5.5,1.9c-1.82-5.16-3.6-10.25-5.41-15.5-3.23,1.12-6.33,2.15-9.68,3.31,1.74,5.17,3.47,10.25,5.29,15.54-1.9.66-3.63,1.28-5.66,2-1.82-5.17-3.56-10.26-5.42-15.55-4.17,1.41-8.26,2.81-12.52,4.3,1.73,5.21,3.47,10.25,5.29,15.5l-5.83,2.07c-2.52-7.36-5-14.59-7.61-22.07l39.44-13.56C334.18,150.88,336.66,158.07,339.22,165.55Z" transform="translate(-23.88 -21.32)"/><path class="cls-1" d="M266,274.15c4.46,15.58,8.8,30.63,13.22,46.09,1.53-1.32,2.69-2.56,4.1-3.55,1.24-.87,1.28-1.78.86-3.06-.86-2.48-1.48-5-2.35-7.52a2.46,2.46,0,0,1,.83-3.11q5-4.14,9.71-8.47a2.14,2.14,0,0,1,2.77-.41c2.52,1.32,5.13,2.52,7.77,3.68a2.31,2.31,0,0,0,1.94,0,59.55,59.55,0,0,0,4.88-4.18C295.11,287.17,280.81,280.76,266,274.15Zm13.51,24c-1.44-4.59-2.85-9-4.3-13.48,4.18,2,8.27,4,12.78,6.12Z" transform="translate(-23.88 -21.32)"/><path class="cls-1" d="M324.67,126.36c-15.17,4.26-30.06,8.48-45.43,12.82,7.44-14.18,14.67-27.91,22-41.8a59.14,59.14,0,0,1,3.8,4.72,2.8,2.8,0,0,1-.16,2.35c-4.34,8.23-8.77,16.41-13.32,24.81,2.69-.79,5.3-1.62,7.9-2.36,6.28-1.86,12.57-3.64,18.81-5.54,1.36-.46,2.36-.41,3.22.91S323.51,124.87,324.67,126.36Z" transform="translate(-23.88 -21.32)"/><path class="cls-1" d="M253.11,72.83c-1.37,3.06-2.69,6.07-4.14,9.3,5,2.23,9.84,4.42,15,6.74-.79,1.82-1.57,3.55-2.4,5.49-5-2.19-9.88-4.34-15.05-6.61-2.64,6-5.29,11.78-8,17.82-2.15-1-4.14-1.86-6.29-2.81,5.67-12.69,11.29-25.3,17-38.12,7.15,3.18,14.1,6.29,21.29,9.51-.82,1.82-1.53,3.51-2.35,5.33Z" transform="translate(-23.88 -21.32)"/><path class="cls-1" d="M331.7,236.32c-1.37,1.49-4.18,2-5.46.42-1.9-2.32-4.3-1.45-6.86-1.9,1.19,2.93,2.27,5.66,3.43,8.31.45,1.11.62,1.94-.71,2.56s-1.77-.08-2.31-1c-1.65-2.73-3.31-5.42-5-8.31-2.36,2.23-4.72,4.3-6.91,6.57-.45.41-.37,1.37-.45,2.07a4.09,4.09,0,0,1-4.05,3.51,3.89,3.89,0,0,1-3.81-3.47c-.24-2.15,1-4.3,3-4.3,2.36,0,3.64-1.45,5.09-2.81,1.15-1.12,2.35-2.23,3.55-3.31-.16-.33-.33-.62-.45-.91-1.45.5-2.9,1-4.34,1.57-1.7.66-3.31.62-4.51-.91A3.26,3.26,0,0,1,302,230a3.78,3.78,0,0,1,4.76-.58c1.44.78,3.1,1.28,4.63,1.94l.45-.7c-1.12-2.65-2.19-5.33-3.31-8-.45-1-.74-1.9.62-2.6s1.86.16,2.44,1.11c1.66,2.73,3.31,5.42,5.13,8.39,2.11-2,4.17-3.88,6.12-5.87.37-.37.29-1.11.37-1.69a3.28,3.28,0,0,1,3.39-3,3.22,3.22,0,0,1,3.55,2.81c.34,1.82-.29,3.64-2.1,3.93-3.48.54-4.88,3.47-7.24,5.37,1.9.29,3.72,1.12,5.5-.66,1.49-1.45,4.18-1,5.5.54A4.24,4.24,0,0,1,331.7,236.32Z" transform="translate(-23.88 -21.32)"/><path class="cls-1" d="M102.47,244.92a4,4,0,0,1-3.85,3.68c-1.94,0-3.88-1.36-3.88-3.31,0-1.77-.91-2.72-2-3.76-1.78-1.61-3.55-3.26-5.5-5-1.65,2.73-3.3,5.37-4.92,8-.57.91-1,1.9-2.43,1.2s-1.08-1.7-.58-2.77c1.07-2.65,2.15-5.25,3.3-8.1-2.6.41-5-.33-7,2-1.24,1.49-3.93,1-5.25-.5a4.18,4.18,0,0,1-.13-5.41,4.23,4.23,0,0,1,5.54-.58c1.94,1.41,2.73,1.49,5.66.62-2.48-1.82-3.8-4.71-7.19-5.17-1.69-.25-2.56-1.73-2.44-3.55a3.25,3.25,0,0,1,2.9-3.27c1.73-.33,3.51.37,3.76,2.07.58,4.26,4.46,5.5,6.78,8.56,1.82-3,3.51-5.75,5.17-8.48.57-.91,1.07-1.82,2.48-1.11s1,1.57.62,2.64c-1.12,2.61-2.2,5.21-3.35,8,1.94.17,3.51.41,5-1a3.36,3.36,0,0,1,4.71.12,3.63,3.63,0,0,1,.33,4.71,3.8,3.8,0,0,1-4.71.83,10.23,10.23,0,0,0-4.42-1c2.68,2.31,4,6.2,8.22,6.45A3.76,3.76,0,0,1,102.47,244.92Z" transform="translate(-23.88 -21.32)"/><path class="cls-1" d="M290.48,88.58c-8.56,11-17,21.82-25.67,32.86-1.82-1.4-3.56-2.73-5.46-4.21,8.56-11,17.07-21.83,25.71-32.91C286.92,85.81,288.58,87.09,290.48,88.58Z" transform="translate(-23.88 -21.32)"/><path class="cls-1" d="M124.92,133.06c-1.49,1.82-2.86,3.51-4.35,5.37-10.78-8.76-21.45-17.4-32.41-26.25,1.49-1.86,2.82-3.47,4.3-5.37C103.29,115.57,114,124.25,124.92,133.06Z" transform="translate(-23.88 -21.32)"/><path class="cls-1" d="M261.09,328.55c-2.07,1-4,1.95-6.2,3C249,319,243.15,306.44,237.23,293.7c2.2-1,4.14-1.9,6.25-2.89C249.35,303.42,255.13,315.86,261.09,328.55Z" transform="translate(-23.88 -21.32)"/></svg>