<?xml version="1.0" encoding="UTF-8"?>
<svg width="213px" height="50px" viewBox="0 0 213 50" version="1.1" xmlns="http://www.w3.org/2000/svg" xmlns:xlink="http://www.w3.org/1999/xlink">
    <title>ssk</title>
    <g id="safia" stroke="none" stroke-width="1" fill="none" fill-rule="evenodd">
        <g id="Tablet" transform="translate(-73.000000, -4339.000000)" fill="#2E2E41" fill-rule="nonzero" stroke="#979797">
            <g id="Cards-Copy" transform="translate(19.000000, 3743.000000)">
                <g id="ssk" transform="translate(0.000000, 531.000000)">
                    <g transform="translate(55.000000, 66.000000)" id="Path">
                        <path d="M43.7286706,38.3949303 C41.8663826,42.7217488 38.2326498,45.3336951 33.847395,46.6062888 C24.3501389,49.3517531 15.1956098,47.7996061 6.27644753,44.056929 C4.12511256,43.1556823 2.08939635,41.9707099 0,40.9276003 L0,40.0931127 L3.89800426,34.5437699 L6.09063165,35.7662943 C13.5728178,39.9387325 21.3936018,42.4088159 29.9824247,40.1390095 C31.8328639,39.6290007 33.539636,38.6888148 34.9664195,37.3935452 C38.8066144,33.8386278 37.7123653,28.2600779 32.7283705,26.6203097 C29.7098947,25.6230969 26.4147598,25.4311648 23.2311144,25.043128 C19.0812263,24.5340906 14.8528827,24.4923662 10.7649334,23.6954305 C5.52905477,22.6690107 2.82027215,19.6231308 2.22566133,15.0751731 C1.54846567,9.90552217 3.78238549,5.25325355 8.25435435,2.81654963 C14.5225434,-0.596504833 21.2366906,-0.354503416 27.9756132,0.676088824 C33.2114918,1.47719696 37.9725076,3.5550712 42.5766122,6.72195181 L38.9387502,12.6927109 C36.1680289,11.3658755 33.6533207,9.90969461 30.9693135,8.9375165 C25.6591085,7.01402248 20.2002509,6.01680975 14.617516,7.84016525 C13.7006238,8.12115327 12.8286345,8.53430589 12.0284814,9.06686209 C10.3767846,10.2059377 9.45183448,11.7914642 9.81107851,13.8776834 C10.1455471,15.8429018 11.561877,16.9235633 13.3168048,17.2698756 C15.728282,17.7371887 18.2016978,17.883224 20.6503382,18.1669498 C25.4072248,18.7260566 30.2879886,18.7886431 34.8962224,19.948581 C43.3570389,22.0848693 47.1931045,30.346297 43.7286706,38.3949303 Z"></path>
                        <path d="M100.668491,37.6337895 C98.1466905,42.8571943 93.5082311,45.5078162 87.9561357,46.4132064 C77.1206614,48.1830189 67.033459,45.8888175 57.6490536,40.34996 C57.4712873,40.2434435 57.3017893,40.1246367 57,39.9402812 L60.4478388,33.9589706 C63.8336662,35.478879 66.9177043,37.1667556 70.2043132,38.2769852 C75.6613243,40.1164431 81.3043699,41.1898016 87.0011587,39.3298598 C88.8333938,38.7759438 90.5248727,37.8400583 91.9620779,36.5850117 C95.6827673,33.0740643 94.5830969,27.666304 89.7048597,26.1054278 C86.5505419,25.0935211 83.1109713,24.9255528 79.7830213,24.5199708 C75.7646768,24.032453 71.6677844,23.9955819 67.7114513,23.2171922 C62.4322065,22.1807048 59.5920803,19.120404 59.0835861,14.8310669 C58.4345325,9.37824193 60.6876166,5.03154976 65.3715511,2.54070259 C70.0554856,0.0498554198 75.1280255,-0.175467926 80.2543087,0.0826297247 C87.1417181,0.406275985 93.4544878,2.51202507 99.4861387,6.52278063 L95.8233267,12.586027 C94.2937099,11.7666694 92.9294572,10.8817632 91.4411814,10.2098899 C85.0498639,7.30526715 78.4849141,5.55593863 71.4528112,7.67807487 C70.4068801,7.99602686 69.4268083,8.49690218 68.5589417,9.15701538 C65.4459649,11.5782171 65.9337886,15.429198 69.6503439,16.6787183 C71.8794763,17.3656091 74.1992335,17.7204421 76.5336193,17.7315929 C81.6350978,17.8626901 86.7117718,17.9405291 91.6685569,19.3703081 C100.159997,21.7874131 104.327169,30.0301508 100.668491,37.6337895 Z"></path>
                        <path d="M211,46.9163214 C208.185171,46.9163214 205.813688,47.0444705 203.471483,46.8460461 C202.676806,46.7799047 201.756654,46.0192781 201.225475,45.3578637 C195.77706,38.3799416 190.378834,31.3703267 185.030798,24.3290191 C183.922433,22.8615059 183.127757,22.7209553 181.772624,23.9983119 C179.957414,25.701454 177.836882,27.098692 176.088593,28.8597078 C175.213012,29.7660074 174.674756,30.9393074 174.561977,32.1874491 C174.382129,36.4494383 174.457414,40.7238289 174.503422,45.0023534 C174.503422,46.358253 174.147909,46.953526 172.625475,46.978329 C167.058555,47.0692735 167.054373,47.1230134 167.05019,41.6580768 C167.05019,29.3309656 167.10038,17.0038544 167,4.67674325 C167,2.57261864 167.585551,1.92773959 169.701901,2.00628255 C175.252091,2.21297455 174.419772,1.32006509 174.478327,6.72712794 C174.520152,10.5137255 174.478327,14.3044569 174.503422,18.0910544 C174.503422,18.8806178 174.662357,19.6701813 174.80038,20.8896641 C175.787452,20.2075805 176.473384,19.7983303 177.075665,19.3022695 C183.558555,13.9778835 189.995437,8.59975751 196.536882,3.34978058 C197.5771,2.61100602 198.808933,2.1807942 200.087833,2.10962855 C202.496958,1.91533807 204.931179,2.05175479 207.352852,2.05175479 L208.097338,2.97773497 C207.469962,3.25056842 206.738023,3.39111898 206.231939,3.80450299 C201.146008,7.98381534 196.152091,12.2747414 190.995057,16.3713769 C189.301141,17.7190088 189.422433,18.6573905 190.622814,20.2117144 C196.921673,28.3595132 203.1327,36.5775873 209.373004,44.7708584 C209.824715,45.349596 210.272243,45.9531367 211,46.9163214 Z"></path>
                        <path d="M151.608847,26.7654656 C151.525552,27.2589246 150.526005,27.9196577 149.942936,27.9447488 C146.96512,28.0702045 143.978974,28.0702045 140.996993,27.9865674 C139.18115,27.9322033 138.523115,28.6849373 138.573093,30.4580439 C138.648059,33.3100693 138.573093,36.1662766 138.573093,39.0224838 C138.593916,40.3146772 138.156615,40.8625002 136.773909,40.9210462 C131.101481,41.1635938 131.105646,41.2054124 131.101481,35.459543 C131.101481,33.7198912 131.03068,31.9718756 131.101481,30.2364056 C131.184777,28.6222094 130.55173,27.9614763 128.935797,27.9949311 C125.953816,28.0534771 122.971835,27.9949311 119.989854,28.0158404 C118.707102,28.0158404 118.149022,27.5976548 118.08655,26.2218244 C117.828334,20.6181382 117.786686,20.6181382 123.421631,20.62232 C125.295781,20.62232 127.169931,20.5512285 129.039916,20.62232 C130.597543,20.6934116 131.122305,20.0243147 131.097316,18.5313923 C131.034845,15.6793669 131.138964,12.8189778 131.059833,9.96695243 C131.02235,8.54512159 131.476311,8.03075337 132.942313,8.01402595 C138.548104,7.94711626 138.548104,7.89275214 138.543939,13.5842574 C138.543939,15.0479068 138.62307,16.5115561 138.543939,17.9710237 C138.418996,19.8904953 139.039548,20.8523221 141.126101,20.6390474 C142.513027,20.5594196 143.903101,20.551045 145.290879,20.6139563 L146.540312,20.6139563 C152.091961,20.6181382 152.562581,21.1450519 151.608847,26.7654656 Z"></path>
                    </g>
                </g>
            </g>
        </g>
    </g>
</svg>