<?xml version="1.0" encoding="UTF-8"?>
<svg width="150px" height="45px" viewBox="0 0 150 45" version="1.1" xmlns="http://www.w3.org/2000/svg" xmlns:xlink="http://www.w3.org/1999/xlink">
    <title>threei</title>
    <g id="safia" stroke="none" stroke-width="1" fill="none" fill-rule="evenodd">
        <g id="Tablet" transform="translate(-519.000000, -4524.000000)" fill="#2E2E41" fill-rule="nonzero">
            <g id="Cards-Copy" transform="translate(19.000000, 3743.000000)">
                <g id="threei" transform="translate(417.000000, 713.000000)">
                    <g transform="translate(83.000000, 68.000000)">
                        <path d="M118.999665,14.8799891 C110.487467,10.6791735 103.97956,14.3969258 98.353058,21.1964992 C91.4467076,11.4129404 83.260509,10.8809594 73.9333137,17.6499592 C73.5710925,15.0022835 73.5710925,12.0977895 70.0696211,13.2657019 C67.9144051,13.9872393 65.9282257,15.2529872 64.7087477,15.8583449 C63.2417519,15.1123486 62.2275326,14.3724669 61.0865359,14.0850749 C59.9455392,13.7976829 58.8769867,14.0850749 57.7782492,14.0055835 C55.7316995,13.8343712 54.964998,14.6170559 55.0012201,16.7755536 C55.1219605,24.0092724 55.0434793,31.2491059 55.0434793,38.4828247 L55.0434793,44.1817478 L63.6945284,44.1817478 C63.6945284,39.0698383 63.6220842,34.196403 63.6945284,29.3168531 C63.7790467,24.3394675 66.9786671,20.8418452 71.1562846,20.958025 C68.2585152,32.9856876 70.2809168,39.3450009 78.2497827,43.2828833 C85.2225404,46.7254731 92.4790379,44.9399736 97.7070969,38.3911039 C94.8334756,36.1408854 92.4548899,34.5204834 88.5791233,36.8012756 C86.5601698,37.9576769 84.1285691,38.1102975 81.984105,37.2152153 C79.8396409,36.320133 78.2201671,34.4766261 77.5917476,32.2152324 C82.7775474,32.2152324 87.89694,32.3619858 93.0042586,32.1540851 C95.576029,32.0440201 96.8377661,32.7655576 97.8640594,35.3215123 C100.327163,41.4729249 105.386186,44.5730901 111.749205,44.9583178 C117.152337,45.2823981 121.577472,42.8487379 124.946129,38.4155628 C122.042323,36.1959179 119.705996,34.4348773 115.794008,36.7829314 C111.477539,39.3816892 106.032147,36.7829314 104.716077,32.1112821 L126.865902,32.1112821 C127.674862,24.2355172 124.795204,17.7294506 118.999665,14.8799891 Z M77.3442297,26.5407682 C77.9841538,22.4989355 80.9664415,20.4627323 85.5968356,20.5727974 C89.5631575,20.6706329 92.0926687,22.7740981 92.4428158,26.5407682 L77.3442297,26.5407682 Z M104.420263,26.4673916 C105.319779,22.4255588 108.096808,20.5177648 112.570239,20.5727974 C116.500339,20.6217152 119.017776,22.5661975 119.76033,26.4673916 L104.420263,26.4673916 Z" id="Shape"></path>
                        <path d="M45.1770948,43.5497934 C45.1770948,38.9210484 45.1770948,34.3286073 45.1770948,29.7422168 C45.1412779,25.7124859 43.3265532,23.2256699 40.0851205,22.6266559 C35.8229052,21.8279704 32.1934557,23.6552659 30.892107,27.4127177 C30.5643866,28.5660438 30.4212913,29.7651835 30.4682733,30.9644475 C30.4205174,35.0788875 30.4682733,39.1872769 30.4682733,43.4953376 L21.8602697,43.4953376 L21.8602697,26.3054493 C21.8602697,19.7465479 21.8602697,19.8010037 15.335618,20.1761438 C13.6701304,20.2729541 13.055273,20.8659176 13.1089985,22.5358962 C13.1985408,25.2526367 13.1089985,27.9814785 13.1089985,30.6982191 C13.1089985,35.2301537 13.7954897,36.0469911 18.5651117,37.1784621 L18.5651117,40.5970777 C18.5651117,44.620758 17.8487729,45.2802785 13.896971,44.911189 C7.95732921,44.3605801 4.74574398,41.0750788 4.42936104,34.9639252 C4.25027637,31.5453096 4.34578819,28.1145928 4.32787973,24.6778252 C4.32787973,20.4786762 4.32787973,20.4786762 0,19.9462192 L0,14.1436487 L4.33384922,13.5688372 C4.33384922,10.6342734 4.38160513,7.73601342 4.33384922,4.84380412 C4.29206279,3.10726841 4.79946938,2.21177265 6.72164493,2.34488688 C8.64382047,2.47800112 10.6794163,2.37514012 13.079151,2.37514012 L13.079151,13.6898501 L21.7468494,13.6898501 L21.7468494,2 L30.4145479,2 L30.4145479,16.7635788 C34.3365023,14.1739019 37.8047756,12.715696 42.0729604,13.6535463 C48.0722971,14.9725873 52.3703294,18.8268495 53.0568207,25.1497757 C53.707495,31.127815 53.7015255,37.1724114 54,43.573996 L45.1770948,43.5497934 Z" id="Path"></path>
                        <path d="M150,34.9400397 C146.67169,36.8262722 144.038037,38.3014027 141.428545,39.812807 C140.992772,40.0422168 140.630549,40.390078 140.38354,40.8163794 C139.900301,41.8078605 139.694925,43.6517737 139.121078,43.7545492 C137.033207,44.0529788 134.915501,44.0793964 132.820847,43.8331422 C132.379891,43.7968685 131.806045,42.7449311 131.691276,42.0859589 C131.573978,40.9329186 131.55579,39.7719289 131.636911,38.6157748 L128.151549,39.4319331 C128.079063,39.0933785 127.952213,38.8696907 128.018658,38.7427328 C131.334887,31.8507295 132.247001,24.5536699 131.606709,17.0208313 C131.407373,14.6569951 132.506742,14.4091248 134.572589,14.1128895 C139.175442,13.4539173 142.056756,15.7512517 144.273616,19.1428428 C147.571723,24.2030241 148.822105,29.9947251 150,34.9400397 Z" id="Path"></path>
                        <path d="M140.999735,4.75477507 C140.999735,7.33393813 139.244541,9.01648227 136.636667,8.99987822 C134.266879,8.99987822 132.090881,6.99632237 132.002291,4.76030976 C131.913701,2.62392148 134.410838,0.0392237363 136.592372,0.000480943575 C138.884643,-0.0382618491 141.027419,2.26970166 140.999735,4.75477507 Z" id="Path"></path>
                    </g>
                </g>
            </g>
        </g>
    </g>
</svg>