<svg width="336" height="314" viewBox="0 0 336 314" fill="none" xmlns="http://www.w3.org/2000/svg">
<path d="M335 168L335 312.6H1L1.00003 168C1.00005 75.7684 75.7685 0.999984 168 1C260.232 1.00002 335 75.7685 335 168Z" fill="#F2B029" stroke="#82AB40" stroke-width="2"/>
<path d="M166.821 121L166.821 275.8L152.821 245L151 245.828L166.011 279H169.631L184.641 245.828L182.821 245L168.821 275.8L168.821 121H166.821Z" fill="#ECEDEE"/>
<path fill-rule="evenodd" clip-rule="evenodd" d="M176.852 70.3211L177.544 67.5286L182.477 68.7519L188.694 43.6813L183.762 42.4581L184.454 39.6656L200.944 43.7549C204.436 44.6209 206.88 45.9915 208.276 47.8666C209.675 49.7281 210.056 51.9429 209.419 54.5111C209.173 55.5031 208.764 56.4546 208.192 57.3657C207.623 58.2632 206.835 59.0269 205.828 59.657C204.837 60.2769 203.58 60.6646 202.056 60.8203C200.548 60.9658 198.735 60.7757 196.615 60.25L188.319 58.1927L185.514 69.505L190.447 70.7283L189.754 73.5207L176.852 70.3211ZM188.992 55.4818L191.731 44.4345L200.129 46.517C202.48 47.1 204.2 48.0169 205.289 49.2678C206.394 50.5084 206.715 52.0664 206.25 53.9416C205.805 55.7352 204.834 56.9442 203.338 57.5684C201.859 58.1824 199.89 58.1844 197.43 57.5745L188.992 55.4818Z" fill="#ECEDEE"/>
<path fill-rule="evenodd" clip-rule="evenodd" d="M135.261 74.9912L134.692 72.1709L139.674 71.1665L134.569 45.846L129.587 46.8505L129.018 44.0302L144.087 40.992C147.312 40.3418 150.265 40.4319 152.946 41.2624C155.638 42.0764 157.89 43.5075 159.703 45.5556C161.513 47.5901 162.722 50.1169 163.331 53.1362C163.948 56.1966 163.821 59.0357 162.949 61.6537C162.074 64.2579 160.555 66.4636 158.392 68.2709C156.242 70.0754 153.555 71.3027 150.329 71.953L135.261 74.9912ZM149.761 69.1327C152.341 68.6125 154.484 67.6235 156.189 66.1657C157.906 64.6914 159.105 62.8856 159.788 60.7484C160.485 58.6085 160.582 56.2897 160.078 53.7919C159.577 51.3079 158.594 49.2283 157.128 47.553C155.676 45.8749 153.875 44.7026 151.727 44.036C149.593 43.3666 147.236 43.2921 144.656 43.8123L137.636 45.2276L142.741 70.5481L149.761 69.1327Z" fill="#ECEDEE"/>
<path d="M117.242 65.4797L118.658 67.8871L107.454 74.4777L113.363 84.5236L129.092 75.2713L125.952 69.9316L128.649 68.3452L133.248 76.1647L107.744 91.1665L106.285 88.6867L110.666 86.1101L97.5699 63.8461L93.1895 66.4227L91.7308 63.9428L116.909 49.1327L121.509 56.9523L118.812 58.5387L115.671 53.199L100.267 62.2596L106.038 72.0703L117.242 65.4797Z" fill="#ECEDEE"/>
<path fill-rule="evenodd" clip-rule="evenodd" d="M80.1624 98.8203L88.7728 106.675L92.1978 102.921L94.3233 104.86L85.3645 114.68L83.239 112.741L86.664 108.987L67.5814 91.5786L64.1564 95.3331L62.0309 93.3941L73.4807 80.8431C75.9056 78.1849 78.2592 76.6747 80.5417 76.3123C82.8242 75.9499 84.8963 76.6179 86.758 78.3162C87.7612 79.2315 88.4879 80.2733 88.9379 81.4419C89.387 82.5906 89.5464 83.7973 89.4162 85.0618C89.2894 86.2654 88.8751 87.4635 88.1734 88.6564C88.9997 88.4869 89.8252 88.5829 90.6497 88.9444L101.058 93.2087L103.393 90.6489L105.518 92.5878L101.626 96.8543L90.2856 92.0233C89.225 91.5864 88.3556 91.4281 87.6773 91.5484C86.999 91.6488 86.3066 92.0859 85.5999 92.8597L80.1624 98.8203ZM69.6902 89.267L78.099 96.9379L83.9017 90.577C85.0339 89.3359 85.8158 88.1257 86.2472 86.9464C86.6787 85.7672 86.7668 84.6631 86.5115 83.6343C86.2562 82.6055 85.6734 81.6759 84.7632 80.8456C83.429 79.6285 81.9634 79.22 80.3665 79.6203C78.7686 80.0009 77.1535 81.0858 75.5212 82.8751L69.6902 89.267Z" fill="#ECEDEE"/>
<path d="M51.0346 112.788L56.59 101.036L59.191 102.266L57.073 106.747L72.0146 113.81C74.3562 114.917 76.1809 116.298 77.4887 117.954C78.7839 119.603 79.5016 121.476 79.6417 123.571C79.7879 125.653 79.2866 127.909 78.1378 130.339C76.995 132.757 75.5697 134.576 73.862 135.797C72.1602 137.006 70.2608 137.633 68.1639 137.68C66.0543 137.72 63.8288 137.187 61.4872 136.08L46.5455 129.017L44.4275 133.497L41.8265 132.268L47.4537 120.364L50.0547 121.593L47.8918 126.169L62.8334 133.232C64.6181 134.076 66.3058 134.502 67.8967 134.51C69.4809 134.501 70.9113 134.046 72.1878 133.148C73.4643 132.249 74.5423 130.869 75.4218 129.009C76.3014 127.148 76.6892 125.427 76.5854 123.845C76.469 122.257 75.9118 120.847 74.914 119.617C73.9221 118.374 72.5338 117.33 70.7492 116.487L55.8075 109.423L53.6356 114.018L51.0346 112.788Z" fill="#ECEDEE"/>
<path d="M49.6079 142.257L39.6307 140.68L34.9728 170.155L44.95 171.732L45.4417 168.621L38.3063 167.493L39.896 157.433L65.4094 161.465L64.6162 166.484L67.4579 166.933L69.5328 153.803L66.6911 153.354L65.9011 158.353L40.3877 154.321L41.9807 144.241L49.1162 145.368L49.6079 142.257Z" fill="#ECEDEE"/>
<path fill-rule="evenodd" clip-rule="evenodd" d="M64.229 203.637L56.921 200.629L56.921 185.896L64.229 182.889L64.229 190.008H67.106L67.106 176.547H64.229L64.229 179.592L35.522 191.415L35.522 194.964L64.229 206.766V209.832H67.106L67.106 196.518H64.229L64.229 203.637ZM39.344 193.13L54.149 187.037L54.149 199.489L39.344 193.396L39.344 193.13Z" fill="#ECEDEE"/>
<path d="M52.574 223.863H49.781L49.781 236.862H38.399L38.399 218.991L44.594 218.991L44.594 215.862H35.522L35.522 245.073H38.399L38.399 239.991L64.229 239.991L64.229 245.073H67.106L67.106 215.484H58.034L58.034 218.613L64.229 218.613L64.229 236.862H52.574L52.574 223.863Z" fill="#ECEDEE"/>
<path d="M52.574 257.898H49.781L49.781 269.343H38.399L38.399 253.131H44.594L44.594 249.981H35.522L35.522 277.554H38.399L38.399 272.472L64.229 272.472L64.229 277.554H67.106L67.106 263.253H64.229L64.229 269.343H52.574L52.574 257.898Z" fill="#ECEDEE"/>
<path fill-rule="evenodd" clip-rule="evenodd" d="M219.079 68.9028L213.019 78.858L217.359 81.5007L215.863 83.9581L204.509 77.0456L206.005 74.5881L210.346 77.2309L223.778 55.1679L219.437 52.5252L220.933 50.0678L235.444 58.9023C238.518 60.7733 240.451 62.7942 241.243 64.9651C242.036 67.1359 241.777 69.2976 240.467 71.4501C239.761 72.61 238.877 73.5227 237.817 74.1881C236.775 74.8489 235.621 75.2365 234.355 75.3507C233.15 75.4567 231.894 75.2796 230.589 74.8193C230.914 75.5978 230.978 76.4264 230.781 77.305L228.588 88.3368L231.548 90.1386L230.052 92.596L225.119 89.5929L227.689 77.5371C227.915 76.4125 227.904 75.5289 227.656 74.8862C227.427 74.2388 226.864 73.6421 225.967 73.0961L219.079 68.9028ZM226.451 56.795L220.532 66.5171L227.886 70.9944C229.321 71.868 230.659 72.4037 231.899 72.6013C233.139 72.799 234.239 72.674 235.2 72.2264C236.161 71.7788 236.962 71.0289 237.602 69.9766C238.542 68.434 238.662 66.9173 237.963 65.4265C237.284 63.9311 235.91 62.5537 233.841 61.2942L226.451 56.795Z" fill="#ECEDEE"/>
<path fill-rule="evenodd" clip-rule="evenodd" d="M241.548 105.954C239.987 104.14 238.855 102.223 238.152 100.205C237.46 98.1776 237.19 96.1471 237.343 94.1135C237.506 92.0708 238.085 90.1039 239.08 88.2129C240.086 86.3128 241.502 84.5773 243.327 83.0066C245.131 81.4541 247.037 80.3312 249.044 79.6377C251.052 78.9443 253.067 78.6784 255.09 78.8399C257.124 78.9922 259.082 79.5608 260.963 80.5456C262.854 81.541 264.585 82.9513 266.156 84.7765C267.727 86.6016 268.859 88.518 269.552 90.5256C270.255 92.5438 270.53 94.5698 270.378 96.6034C270.236 98.6278 269.673 100.581 268.688 102.463C267.712 104.355 266.322 106.078 264.518 107.63C262.693 109.201 260.766 110.342 258.737 111.054C256.719 111.757 254.683 112.031 252.63 111.877C250.596 111.725 248.629 111.155 246.727 110.169C244.845 109.184 243.119 107.779 241.548 105.954ZM243.872 103.954C245.543 105.896 247.433 107.234 249.543 107.968C251.672 108.703 253.841 108.831 256.051 108.351C258.27 107.882 260.367 106.798 262.34 105.1C264.293 103.419 265.656 101.526 266.429 99.4197C267.222 97.315 267.403 95.1644 266.972 92.968C266.55 90.7822 265.503 88.7183 263.832 86.7764C262.17 84.8451 260.285 83.5027 258.178 82.7492C256.079 82.0063 253.925 81.8648 251.717 82.3247C249.519 82.7756 247.444 83.8411 245.491 85.5215C243.518 87.2201 242.133 89.1316 241.339 91.2561C240.544 93.3806 240.348 95.5448 240.748 97.7489C241.16 99.9439 242.201 102.012 243.872 103.954Z" fill="#ECEDEE"/>
<path d="M255.947 120.827C254.952 122.963 255.144 125.501 256.522 128.442C257.418 130.357 258.538 131.773 259.879 132.69C261.234 133.602 262.754 134.042 264.439 134.01C266.138 133.972 267.963 133.496 269.916 132.581L286.879 124.636L289.035 129.239L291.64 128.019L285.601 115.125L282.996 116.345L285.552 121.803L268.626 129.73C266.42 130.763 264.537 131.05 262.977 130.59C261.417 130.13 260.197 128.962 259.318 127.086C258.452 125.235 258.353 123.573 259.024 122.099C259.694 120.626 261.12 119.379 263.3 118.357L265.297 117.422L263.961 114.569L261.964 115.505C258.947 116.918 256.941 118.692 255.947 120.827Z" fill="#ECEDEE"/>
<path d="M284.556 159.555L281.811 160.071L279.41 147.296L267.955 149.449L271.326 167.384L277.415 166.239L277.992 169.314L269.077 170.99L263.611 141.91L266.439 141.379L267.377 146.373L292.763 141.602L291.824 136.608L294.652 136.076L300.047 164.785L291.131 166.461L290.553 163.385L296.642 162.241L293.341 144.678L282.155 146.78L284.556 159.555Z" fill="#ECEDEE"/>
<path d="M269.175 185.955C268.377 187.887 267.978 190.008 267.978 192.318C267.978 194.964 268.482 197.344 269.49 199.458C270.512 201.586 271.947 203.357 273.795 204.771C275.643 206.185 277.806 207.144 280.284 207.648L280.956 204.414C278.968 204.008 277.225 203.245 275.727 202.125C274.243 201.019 273.095 199.626 272.283 197.946C271.471 196.266 271.065 194.39 271.065 192.318C271.065 190.484 271.38 188.804 272.01 187.278C272.654 185.752 273.564 184.436 274.74 183.33C275.916 182.224 277.316 181.363 278.94 180.747C280.564 180.131 282.349 179.823 284.295 179.823C286.871 179.823 289.139 180.348 291.099 181.398C293.059 182.448 294.585 183.911 295.677 185.787C296.783 187.663 297.336 189.847 297.336 192.339C297.336 195.475 296.475 198.121 294.753 200.277C293.045 202.433 290.665 203.833 287.613 204.477V207.606L300.003 207.606V204.477L291.036 204.477V204.33C292.982 203.952 294.655 203.245 296.055 202.209C297.455 201.187 298.533 199.843 299.289 198.177C300.045 196.511 300.423 194.537 300.423 192.255C300.423 189.931 300.024 187.803 299.226 185.871C298.442 183.939 297.336 182.266 295.908 180.852C294.48 179.452 292.779 178.374 290.805 177.618C288.831 176.862 286.661 176.484 284.295 176.484C281.915 176.484 279.724 176.869 277.722 177.639C275.734 178.423 274.012 179.522 272.556 180.936C271.1 182.35 269.973 184.023 269.175 185.955Z" fill="#ECEDEE"/>
<path d="M300.003 242.313L289.902 242.313V239.163H297.126V228.957L271.296 228.957V234.018H268.419L268.419 220.725H271.296V225.807L297.126 225.807V215.622H289.902V212.472L300.003 212.472L300.003 242.313Z" fill="#ECEDEE"/>
<path d="M269.825 254.267C268.607 256.031 267.998 258.404 267.998 261.386C267.998 264.676 268.775 267.224 270.329 269.03C271.883 270.836 274.06 271.739 276.86 271.739C278.666 271.739 280.185 271.34 281.417 270.542C282.663 269.758 283.678 268.512 284.462 266.804C285.246 265.096 285.855 262.842 286.289 260.042C286.681 257.872 287.143 256.122 287.675 254.792C288.221 253.462 288.879 252.496 289.649 251.894C290.433 251.292 291.364 250.991 292.442 250.991C294.094 250.991 295.375 251.628 296.285 252.902C297.209 254.176 297.671 255.912 297.671 258.11C297.671 260.658 297.027 262.758 295.739 264.41C294.465 266.076 292.694 267.091 290.426 267.455V270.605H300.002V267.455H293.513V267.35C294.941 267.112 296.173 266.601 297.209 265.817C298.245 265.033 299.036 263.962 299.582 262.604C300.142 261.26 300.422 259.622 300.422 257.69C300.422 254.61 299.708 252.188 298.28 250.424C296.852 248.674 294.857 247.799 292.295 247.799C290.615 247.799 289.166 248.219 287.948 249.059C286.73 249.899 285.729 251.18 284.945 252.902C284.161 254.638 283.573 256.857 283.181 259.559C282.859 261.743 282.425 263.486 281.879 264.788C281.347 266.104 280.654 267.056 279.8 267.644C278.96 268.232 277.91 268.526 276.65 268.526C274.746 268.526 273.283 267.875 272.261 266.573C271.253 265.271 270.749 263.388 270.749 260.924C270.749 258.166 271.386 255.898 272.66 254.12C273.934 252.342 275.712 251.257 277.994 250.865V247.715L268.418 247.715V250.865H274.844V251.012C272.73 251.418 271.057 252.503 269.825 254.267Z" fill="#ECEDEE"/>
</svg>
