<svg fill="none" xmlns="http://www.w3.org/2000/svg" viewBox="0 0 1573 248">
  <path d="M0 244.195v-13.489h32.444V83.013H3.106V69.177h50.392v57.763l3.106-.346v104.112H83.18v13.489H0Zm105.614 0v-13.489h26.577V117.947c0-11.991-2.992-20.638-8.974-25.941-5.753-5.535-13.806-8.302-24.16-8.302-7.363 0-14.266 1.845-20.709 5.535-6.443 3.458-11.735 8.992-15.877 16.602-3.911 7.609-5.867 17.525-5.867 29.746H49.7c0-15.449 2.3-28.247 6.903-38.393 4.602-10.146 11.044-17.756 19.328-22.829 8.514-5.073 18.753-7.61 30.718-7.61 14.726 0 26.691 4.036 35.895 12.107 9.204 7.84 13.806 20.753 13.806 38.739v113.105h26.576v13.489h-77.313Zm100.093 0v-13.489h26.576V117.947c0-11.991-2.991-20.638-8.974-25.941-5.752-5.535-13.921-8.302-24.505-8.302-7.363 0-14.266 1.845-20.709 5.535-6.443 3.458-11.735 8.992-15.877 16.602-3.911 7.609-5.867 17.525-5.867 29.746h-5.868c0-15.449 2.186-28.247 6.558-38.393 4.602-10.146 11.16-17.756 19.673-22.829 8.514-5.073 18.638-7.61 30.373-7.61 14.726 0 26.576 4.036 35.55 12.107 8.974 7.84 13.461 20.868 13.461 39.085v112.759h26.921v13.489h-77.312ZM341.999 128.324c-4.832 0-9.204-1.615-13.116-4.843-3.912-3.228-5.867-8.186-5.867-14.873 0-9.685 3.336-17.64 10.009-23.866 6.673-6.457 15.416-11.184 26.231-14.181 10.814-3.229 22.319-4.843 34.514-4.843 19.789 0 35.09 4.036 45.905 12.106 10.814 8.07 16.222 20.523 16.222 37.356l-23.125-4.151c0-10.146-3.567-17.986-10.7-23.52-7.133-5.534-18.062-8.301-32.789-8.301-8.743 0-17.027 1.038-24.85 3.113s-14.266 5.419-19.328 10.03c-4.832 4.612-7.363 10.608-7.593 17.987l-1.036-10.031c6.443 0 11.505 1.268 15.187 3.805 3.911 2.305 5.867 5.88 5.867 10.722-.23 4.151-1.726 7.494-4.487 10.031-2.531 2.306-6.212 3.459-11.044 3.459Zm130.81 118.638c-11.965 0-21.169-3.459-27.612-10.376-6.443-6.918-9.664-16.833-9.664-29.746v-17.641h-2.761v-52.92h-1.726l1.726-12.798v-12.452l23.125 4.151v93.043c0 6.457 1.61 11.876 4.832 16.257 3.221 4.15 8.053 6.226 14.496 6.226 6.212 0 10.929-2.076 14.151-6.226 3.221-4.381 4.832-9.8 4.832-16.257v-59.838h15.876v58.801c0 12.451-3.221 22.251-9.664 29.4-6.212 6.917-15.416 10.376-27.611 10.376Zm-104.579.346c-17.028 0-30.833-4.035-41.418-12.106-10.354-8.301-15.531-19.6-15.531-33.897 0-10.607 2.301-19.139 6.903-25.595 4.601-6.687 10.929-11.991 18.983-15.911 8.053-3.92 17.372-6.918 27.956-8.993l27.612-5.534c7.593-1.614 14.381-3.574 20.364-5.88 5.982-2.537 10.699-5.995 14.15-10.377 3.682-4.611 5.523-10.492 5.523-17.64l1.38 24.904h-1.38c-2.301 5.534-6.443 9.915-12.425 13.144-5.983 3.228-14.036 5.995-24.161 8.301l-18.637 3.805c-7.824 1.844-14.957 4.15-21.399 6.917-6.213 2.537-11.16 6.111-14.842 10.723-3.451 4.612-5.177 10.607-5.177 17.986 0 10.376 3.682 18.332 11.045 23.866 7.363 5.534 17.142 8.301 29.337 8.301 10.124 0 19.443-2.19 27.957-6.572 8.513-4.381 15.301-11.414 20.363-21.099 5.293-9.684 7.939-22.598 7.939-38.739l7.938.692c0 20.061-3.106 36.318-9.319 48.77-6.212 12.221-14.841 21.099-25.886 26.633-10.814 5.534-23.239 8.301-37.275 8.301ZM621.202 248c-15.416 0-29.107-3.574-41.072-10.722-11.965-7.149-21.399-17.525-28.302-31.13-6.673-13.836-10.009-30.323-10.009-49.462 0-19.369 3.336-35.741 10.009-49.116 6.903-13.604 16.337-23.981 28.302-31.13 11.965-7.148 25.656-10.722 41.072-10.722 16.797 0 30.718 3.69 41.763 11.069 11.275 7.148 19.673 17.524 25.195 31.129 5.753 13.605 8.629 29.746 8.629 48.424l1.035.692c0 18.678-2.876 34.819-8.628 48.424-5.752 13.605-14.381 24.097-25.886 31.476C652.035 244.311 637.999 248 621.202 248Zm7.248-16.257c12.195 0 22.895-2.882 32.099-8.647 9.434-5.995 16.797-14.527 22.089-25.595 5.292-11.299 7.938-24.904 7.938-40.815 0-15.911-2.646-29.4-7.938-40.468-5.292-11.299-12.655-19.831-22.089-25.596-9.204-5.995-19.904-8.993-32.099-8.993-12.195 0-22.894 2.998-32.098 8.993-8.974 5.765-16.107 14.297-21.399 25.596-5.062 11.068-7.593 24.557-7.593 40.468 0 15.911 2.531 29.516 7.593 40.815 5.292 11.068 12.425 19.6 21.399 25.595 9.204 5.765 19.903 8.647 32.098 8.647Zm62.472 12.452v-50.499l3.796-37.356-5.867-33.551v-109.3h-28.992V0h53.497v230.706h28.992v13.489h-51.426ZM854.887 248c-16.797 0-31.523-3.574-44.178-10.722-12.656-7.149-22.55-17.525-29.683-31.13-7.133-13.605-10.699-30.092-10.699-49.462 0-19.6 3.566-36.087 10.699-49.461 7.133-13.605 17.027-23.982 29.683-31.13 12.655-7.148 27.266-10.723 43.833-10.723l.69 14.182c-12.425 0-23.239 2.882-32.443 8.647-8.974 5.765-15.992 14.296-21.054 25.595-4.832 11.299-7.248 25.135-7.248 41.507 0 22.828 5.752 40.929 17.257 54.304 11.735 13.143 27.382 19.715 46.94 19.715 12.885 0 23.24-2.306 31.063-6.918 8.053-4.611 14.151-10.261 18.293-16.948 4.371-6.687 7.248-13.144 8.628-19.37H932.2c-.921 6.918-3.107 14.066-6.558 21.445-3.221 7.149-7.938 13.836-14.151 20.062-5.982 5.995-13.691 10.953-23.125 14.873-9.204 3.689-20.363 5.534-33.479 5.534Zm-72.135-94.773v-14.181h128.394l23.47 7.61v6.571H782.752Zm128.394-14.181c-.46-11.068-2.876-21.099-7.248-30.092-4.142-8.993-10.24-16.141-18.293-21.445-8.053-5.303-18.178-7.955-30.373-7.955l-.69-14.182c17.487 0 32.099 3.46 43.833 10.377 11.966 6.687 20.939 16.141 26.922 28.363 6.212 12.221 9.319 26.402 9.319 42.544l-23.47-7.61ZM962.575 244.195v-13.489h32.099V13.49h-28.992V0h53.498v230.706h28.65v13.489h-85.255ZM1069.82 244.195v-13.489h32.44V83.013h-29.34V69.177h53.5v161.529h28.99v13.489h-85.59Zm42.79-203.38c-5.29 0-9.66-1.615-13.11-4.843-3.22-3.228-4.83-7.379-4.83-12.452 0-5.303 1.61-9.454 4.83-12.452 3.45-2.997 7.82-4.496 13.11-4.496 5.07 0 9.21 1.499 12.43 4.496 3.45 2.998 5.18 7.149 5.18 12.452 0 5.073-1.73 9.224-5.18 12.452-3.22 3.228-7.36 4.843-12.43 4.843ZM1297.1 244.195v-13.489h32.45V124.173c0-14.066-3.69-24.212-11.05-30.438-7.36-6.457-17.37-9.685-30.03-9.685-9.2 0-17.94 2.306-26.23 6.918-8.28 4.381-15.07 11.414-20.36 21.099-5.06 9.454-7.59 21.791-7.59 37.01h-6.91c0-19.37 2.76-35.05 8.29-47.041 5.75-12.221 13.69-21.099 23.81-26.633 10.36-5.765 22.67-8.647 36.93-8.647 16.8 0 30.49 4.381 41.07 13.144 10.82 8.762 16.23 23.289 16.23 43.581v107.225h27.95v13.489h-84.56Zm-119.76 0v-13.489h32.44V83.013h-29.34V69.177h51.08v60.184l2.77-.346v101.691h32.09v13.489h-89.04ZM1493.27 248c-16.8 0-31.52-3.574-44.18-10.722-12.65-7.149-22.55-17.525-29.68-31.13-7.13-13.605-10.7-30.092-10.7-49.462 0-19.6 3.57-36.087 10.7-49.461 7.13-13.605 17.03-23.982 29.68-31.13 12.66-7.148 27.27-10.723 43.84-10.723l.69 14.182c-12.43 0-23.24 2.882-32.45 8.647-8.97 5.765-15.99 14.296-21.05 25.595-4.83 11.299-7.25 25.135-7.25 41.507 0 22.828 5.75 40.929 17.26 54.304 11.73 13.143 27.38 19.715 46.94 19.715 12.88 0 23.24-2.306 31.06-6.918 8.05-4.611 14.15-10.261 18.29-16.948 4.38-6.687 7.25-13.144 8.63-19.37h15.53c-.92 6.918-3.1 14.066-6.55 21.445-3.23 7.149-7.94 13.836-14.15 20.062-5.99 5.995-13.7 10.953-23.13 14.873-9.2 3.689-20.36 5.534-33.48 5.534Zm-72.13-94.773v-14.181h128.39l23.47 7.61v6.571h-151.86Zm128.39-14.181c-.46-11.068-2.88-21.099-7.25-30.092-4.14-8.993-10.24-16.141-18.29-21.445-8.05-5.303-18.18-7.955-30.37-7.955l-.69-14.182c17.48 0 32.09 3.46 43.83 10.377 11.96 6.687 20.94 16.141 26.92 28.363 6.21 12.221 9.32 26.402 9.32 42.544l-23.47-7.61Z" fill="#33813F"/>
</svg>
