<svg width="1572" height="251" viewBox="0 0 1572 251" fill="none" xmlns="http://www.w3.org/2000/svg">
<path d="M231.022 247.863V228.41H260.488V140.717C260.488 127.016 257.458 116.297 251.397 108.557C245.337 100.818 235.881 96.9487 223.029 96.9487C212.685 96.9487 203.49 99.6679 195.444 105.106C187.399 110.545 181.077 118.336 176.48 128.481C171.882 138.625 169.584 150.809 169.584 165.033L164.098 131.461H170.524C173.136 113.264 179.876 99.6679 190.742 90.6737C201.713 81.6796 215.036 77.1825 230.709 77.1825C248.367 77.1825 261.48 82.4117 270.048 92.87C278.721 103.328 283.057 118.075 283.057 137.109V228.41H315.03V247.863H231.022ZM0 247.863V228.41H33.3838V100.243H0V80.7906H55.9532V228.41H85.5754V247.863H0ZM117.549 247.863V228.41H147.014V140.717C147.014 127.016 143.984 116.297 137.924 108.557C131.863 100.818 122.407 96.9487 109.555 96.9487C99.2111 96.9487 90.0161 99.6679 81.9706 105.106C73.925 110.545 67.5513 118.336 62.8493 128.481C58.2519 138.625 55.9532 150.809 55.9532 165.033L50.6243 131.461H57.0503C59.558 113.264 66.2974 99.6679 77.2686 90.6737C88.2399 81.6796 101.562 77.1825 117.235 77.1825C134.894 77.1825 148.007 82.4117 156.575 92.87C165.247 103.328 169.584 118.075 169.584 137.109V228.41H201.557V247.863H117.549Z" fill="#33813F"/>
<path d="M472.913 247.863C468.629 247.863 465.338 246.503 463.039 243.784C460.845 241.065 459.747 237.247 459.747 232.332V182.132L461.785 176.955L460.688 157.973L459.747 148.09V135.383C459.747 126.807 457.971 119.8 454.419 114.362C450.97 108.924 445.955 104.897 439.372 102.283C432.79 99.6679 424.849 98.3606 415.549 98.3606C401.652 98.3606 390.89 101.132 383.262 106.675C375.739 112.113 370.724 120.323 368.216 131.304L346.587 126.755C348.677 115.774 352.595 106.675 358.342 99.4587C364.089 92.1379 371.717 86.6996 381.225 83.1437C390.838 79.4833 402.54 77.6531 416.333 77.6531C430.752 77.6531 442.82 79.6925 452.538 83.7713C462.36 87.7454 469.778 93.8635 474.794 102.126C479.809 110.388 482.317 121.055 482.317 134.128V228.41H506.924V247.863H472.913ZM394.234 250.059C376.889 250.059 363.723 246.241 354.737 238.607C345.751 230.868 341.258 219.52 341.258 204.565C341.258 190.76 345.229 180.249 353.17 173.033C361.111 165.712 373.859 160.222 391.412 156.561L466.487 140.56V156.718L395.174 172.876C384.934 175.282 377.254 178.837 372.135 183.544C367.119 188.145 364.611 194.682 364.611 203.153C364.611 212.356 367.433 219.259 373.075 223.861C378.717 228.358 386.972 230.606 397.839 230.606C409.855 230.606 420.617 227.835 430.125 222.292C439.634 216.749 447.104 208.591 452.538 197.819C457.971 187.047 460.688 173.765 460.688 157.973L466.644 194.996H458.65C456.038 212.461 449.246 226.005 438.275 235.626C427.408 245.248 412.728 250.059 394.234 250.059Z" fill="#33813F"/>
<path d="M678.738 247.863V185.426L679.678 173.19V153.267L678.738 131.304V19.4525H633.756V0H701.307V228.41H733.281V247.863H678.738ZM615.889 77.6531C629.681 77.6531 642.011 80.686 652.877 86.7519C663.849 92.8177 672.887 101.498 679.992 112.793C687.097 123.984 691.799 137.423 694.098 153.11L679.678 163.934C679.678 151.071 677.171 139.671 672.155 129.736C667.244 119.8 660.191 112.061 650.997 106.518C641.802 100.871 630.883 98.0469 618.24 98.0469C605.806 98.0469 594.991 100.871 585.796 106.518C576.601 112.166 569.496 119.957 564.481 129.893C559.57 139.828 557.114 151.332 557.114 164.405C557.114 177.373 559.674 188.825 564.794 198.761C569.914 208.696 577.072 216.54 586.266 222.292C595.566 227.939 606.224 230.763 618.24 230.763C630.778 230.763 641.593 227.939 650.683 222.292C659.878 216.54 666.983 208.644 671.999 198.604C677.119 188.564 679.678 177.007 679.678 163.934L683.127 199.545H677.798C675.917 208.748 672.26 217.272 666.826 225.116C661.393 232.855 654.236 239.13 645.354 243.941C636.473 248.647 625.815 251 613.381 251C601.783 251 591.125 248.908 581.408 244.725C571.69 240.437 563.279 234.424 556.174 226.684C549.069 218.841 543.531 209.637 539.561 199.074C535.695 188.511 533.761 176.955 533.761 164.405C533.761 147.463 537.157 132.455 543.949 119.382C550.741 106.309 560.249 96.1121 572.474 88.7912C584.804 81.3658 599.275 77.6531 615.889 77.6531Z" fill="#33813F"/>
<path d="M842.481 250.843C825.24 250.843 810.299 247.183 797.656 239.862C785.013 232.541 775.243 222.449 768.347 209.585C761.451 196.617 758.003 181.714 758.003 164.876C758.003 147.829 761.451 132.769 768.347 119.696C775.348 106.623 785.065 96.3735 797.499 88.9481C810.037 81.5227 824.614 77.81 841.227 77.81C857.945 77.81 872.417 81.4704 884.642 88.7912C896.867 96.1121 906.271 106.257 912.853 119.225C919.436 132.193 922.727 147.149 922.727 164.091C922.727 166.078 922.675 167.647 922.571 168.798C922.571 169.948 922.466 170.941 922.257 171.778H900.001C900.106 170.523 900.158 169.164 900.158 167.699C900.263 166.131 900.315 164.353 900.315 162.366C900.315 149.92 897.912 138.887 893.105 129.265C888.403 119.539 881.664 111.904 872.887 106.361C864.11 100.818 853.557 98.0469 841.227 98.0469C829.211 98.0469 818.658 100.923 809.567 106.675C800.477 112.323 793.424 120.166 788.409 130.206C783.393 140.142 780.885 151.698 780.885 164.876C780.885 177.635 783.341 188.93 788.252 198.761C793.267 208.487 800.372 216.121 809.567 221.664C818.762 227.207 829.681 229.979 842.324 229.979C855.49 229.979 866.879 226.894 876.492 220.723C886.209 214.448 893.419 205.925 898.121 195.153L919.436 203.153C913.271 217.899 903.397 229.56 889.814 238.136C876.335 246.607 860.557 250.843 842.481 250.843ZM772.265 171.778V154.365H843.891H915.518L922.1 171.778H772.265Z" fill="#33813F"/>
<path d="M1002.55 228.41H1036.87V247.863H945.654V228.41H979.979V19.4525H945.654V0H1002.55V228.41Z" fill="#33813F"/>
<path d="M1119.46 228.41H1151.59V247.863H1063.04V228.41H1096.89V100.243H1063.04V80.7906H1119.46V228.41ZM1092.66 10.3537H1121.5V40.3169H1092.66V10.3537Z" fill="#33813F"/>
<path d="M1232.38 228.41H1262.16V247.863H1175.49V228.41H1209.81V100.243H1175.49V80.7906H1232.38V228.41ZM1328.61 228.41V141.031C1328.61 127.33 1325.53 116.558 1319.37 108.714C1313.2 100.871 1303.48 96.9487 1290.21 96.9487C1279.45 96.9487 1269.68 99.6156 1260.91 104.949C1252.13 110.283 1245.18 118.022 1240.06 128.167C1234.94 138.311 1232.38 150.6 1232.38 165.033L1227.21 131.618H1233.48C1235.46 120.219 1239.28 110.545 1244.92 102.596C1250.56 94.5433 1257.77 88.4252 1266.55 84.2419C1275.43 79.9539 1285.62 77.81 1297.11 77.81C1315.29 77.81 1328.82 83.0914 1337.7 93.6544C1346.69 104.113 1351.18 118.911 1351.18 138.05V228.41H1383.31V247.863H1299.3V228.41H1328.61Z" fill="#33813F"/>
<path d="M1491.75 250.843C1474.51 250.843 1459.57 247.183 1446.93 239.862C1434.29 232.541 1424.52 222.449 1417.62 209.585C1410.72 196.617 1407.28 181.714 1407.28 164.876C1407.28 147.829 1410.72 132.769 1417.62 119.696C1424.62 106.623 1434.34 96.3735 1446.77 88.9481C1459.31 81.5227 1473.89 77.81 1490.5 77.81C1507.22 77.81 1521.69 81.4704 1533.91 88.7912C1546.14 96.1121 1555.54 106.257 1562.13 119.225C1568.71 132.193 1572 147.149 1572 164.091C1572 166.078 1571.95 167.647 1571.84 168.798C1571.84 169.948 1571.74 170.941 1571.53 171.778H1549.27C1549.38 170.523 1549.43 169.164 1549.43 167.699C1549.54 166.131 1549.59 164.353 1549.59 162.366C1549.59 149.92 1547.18 138.887 1542.38 129.265C1537.68 119.539 1530.94 111.904 1522.16 106.361C1513.38 100.818 1502.83 98.0469 1490.5 98.0469C1478.48 98.0469 1467.93 100.923 1458.84 106.675C1449.75 112.323 1442.7 120.166 1437.68 130.206C1432.67 140.142 1430.16 151.698 1430.16 164.876C1430.16 177.635 1432.61 188.93 1437.52 198.761C1442.54 208.487 1449.64 216.121 1458.84 221.664C1468.03 227.207 1478.95 229.979 1491.6 229.979C1504.76 229.979 1516.15 226.894 1525.76 220.723C1535.48 214.448 1542.69 205.925 1547.39 195.153L1568.71 203.153C1562.54 217.899 1552.67 229.56 1539.09 238.136C1525.61 246.607 1509.83 250.843 1491.75 250.843ZM1421.54 171.778V154.365H1564.79L1571.37 171.778H1421.54Z" fill="#33813F"/>
</svg>
